<?xml version="1.0" encoding="utf-8"?>
<!-- Generator: Adobe Illustrator 23.0.4, SVG Export Plug-In . SVG Version: 6.00 Build 0)  -->
<svg version="1.1" id="Layer_1" xmlns="http://www.w3.org/2000/svg" xmlns:xlink="http://www.w3.org/1999/xlink" x="0px" y="0px"
	 viewBox="0 0 24 24" style="enable-background:new 0 0 24 24;" xml:space="preserve">
<style type="text/css">
	.st0{fill:#333333;}
</style>
<g>
	<path class="st0" d="M7.3,19.1h-5c-0.3,0-0.6-0.3-0.6-0.7V3.4c0-0.4,0.3-0.7,0.6-0.7h19.3c0.3,0,0.6,0.3,0.6,0.7v2.3
		c0,0.4,0.3,0.8,0.8,0.8s0.8-0.3,0.8-0.8V3.4c0-1.2-1-2.2-2.1-2.2H2.3c-1.2,0-2.1,1-2.1,2.2v14.9c0,1.2,1,2.2,2.1,2.2h5
		c0.4,0,0.8-0.3,0.8-0.8S7.7,19.1,7.3,19.1z"/>
	<path class="st0" d="M4.3,12.5C4.3,12.5,4.3,12.5,4.3,12.5c0.4,0,0.8-0.3,0.8-0.7L5.1,6c0-0.4-0.3-0.8-0.7-0.8
		C3.9,5.2,3.6,5.6,3.6,6l-0.1,5.8C3.5,12.2,3.9,12.5,4.3,12.5z"/>
	<path class="st0" d="M7.9,5.3C7.5,5.3,7.2,5.6,7.2,6l-0.1,4.4c0,0.4,0.3,0.8,0.7,0.8c0,0,0,0,0,0c0.4,0,0.7-0.3,0.7-0.7L8.7,6
		C8.7,5.6,8.3,5.3,7.9,5.3C7.9,5.3,7.9,5.3,7.9,5.3z"/>
	<path class="st0" d="M10.7,6l-0.1,2.9c0,0.4,0.3,0.8,0.7,0.8c0,0,0,0,0,0c0.4,0,0.7-0.3,0.7-0.7L12.2,6c0-0.4-0.3-0.8-0.7-0.8
		C11.1,5.3,10.7,5.6,10.7,6z"/>
	<path class="st0" d="M14.3,6l-0.1,1.2c0,0.4,0.3,0.8,0.7,0.8c0,0,0,0,0,0c0.4,0,0.7-0.3,0.7-0.7l0.1-1.2c0-0.4-0.3-0.8-0.7-0.8
		C14.7,5.2,14.3,5.5,14.3,6z"/>
	<path class="st0" d="M17.8,6l-0.1,1.4c0,0.4,0.3,0.8,0.7,0.8c0,0,0,0,0,0c0.4,0,0.7-0.3,0.7-0.7L19.3,6c0-0.4-0.3-0.8-0.7-0.8
		C18.2,5.2,17.9,5.6,17.8,6z"/>
	<circle class="st0" cx="4.3" cy="15.3" r="0.9"/>
	<circle class="st0" cx="8.1" cy="15.3" r="0.9"/>
	<path class="st0" d="M23.6,21.6l-2.4-2.4c0.8-1.1,1.3-2.4,1.3-3.8c0-3.5-2.8-6.3-6.3-6.3s-6.3,2.8-6.3,6.3s2.8,6.3,6.3,6.3
		c1.5,0,2.9-0.5,4-1.4l2.4,2.4c0.1,0.1,0.3,0.2,0.5,0.2s0.4-0.1,0.5-0.2C23.9,22.3,23.9,21.8,23.6,21.6z M11.4,15.4
		c0-2.7,2.2-4.8,4.8-4.8c2.7,0,4.8,2.2,4.8,4.8s-2.2,4.8-4.8,4.8C13.5,20.2,11.4,18,11.4,15.4z"/>
	<path class="st0" d="M15.4,14.3c-0.2-0.2-0.5-0.2-0.7,0l-0.5,0.5l-0.5-0.5c-0.2-0.2-0.5-0.2-0.7,0c-0.2,0.2-0.2,0.5,0,0.7l0.5,0.5
		l-0.5,0.5c-0.2,0.2-0.2,0.5,0,0.7c0.1,0.1,0.2,0.1,0.4,0.1c0.1,0,0.3,0,0.4-0.1l0.5-0.5l0.5,0.5c0.1,0.1,0.2,0.1,0.4,0.1
		c0.1,0,0.3,0,0.4-0.1c0.2-0.2,0.2-0.5,0-0.7l-0.5-0.5l0.5-0.5C15.6,14.8,15.6,14.5,15.4,14.3z"/>
	<path class="st0" d="M19.3,14.3c-0.2-0.2-0.5-0.2-0.7,0l-0.5,0.5l-0.5-0.5c-0.2-0.2-0.5-0.2-0.7,0c-0.2,0.2-0.2,0.5,0,0.7l0.5,0.5
		L17,15.9c-0.2,0.2-0.2,0.5,0,0.7c0.1,0.1,0.2,0.1,0.4,0.1c0.1,0,0.3,0,0.4-0.1l0.5-0.5l0.5,0.5c0.1,0.1,0.2,0.1,0.4,0.1
		c0.1,0,0.3,0,0.4-0.1c0.2-0.2,0.2-0.5,0-0.7l-0.5-0.5l0.5-0.5C19.5,14.8,19.5,14.5,19.3,14.3z"/>
</g>
</svg>
