<?xml version="1.0" encoding="utf-8"?>
<!-- Generator: Adobe Illustrator 23.0.4, SVG Export Plug-In . SVG Version: 6.00 Build 0)  -->
<svg version="1.1" id="Layer_1" xmlns="http://www.w3.org/2000/svg" xmlns:xlink="http://www.w3.org/1999/xlink" x="0px" y="0px"
	 viewBox="0 0 24 24" style="enable-background:new 0 0 24 24;" xml:space="preserve">
<style type="text/css">
	.st0{fill:#333333;}
</style>
<g>
	<path class="st0" d="M8.5,9.5l2.7,2.4c0.2,0.2,0.5,0.3,0.8,0.3c0.3,0,0.5-0.1,0.8-0.3l2.7-2.4c0.3-0.3,0.3-0.7,0.1-1.1
		c-0.3-0.3-0.7-0.3-1.1-0.1L12.8,10V3.1c0-0.4-0.3-0.8-0.8-0.8s-0.8,0.3-0.8,0.8V10L9.5,8.4C9.2,8.1,8.7,8.2,8.4,8.5
		C8.2,8.8,8.2,9.3,8.5,9.5z"/>
	<path class="st0" d="M23.7,10.5l-3-6.4c-0.1-0.3-0.4-0.4-0.7-0.4h-3.6c-0.4,0-0.8,0.3-0.8,0.8s0.3,0.8,0.8,0.8h3.1l2.7,5.8v0.9
		h-5.4c-0.2,0-0.4,0.1-0.6,0.3l-2.2,2.6H9.9l-2.2-2.6c-0.1-0.2-0.4-0.3-0.6-0.3H1.8V11l2.7-5.8h3.1c0.4,0,0.8-0.3,0.8-0.8
		S8,3.7,7.6,3.7H4c-0.3,0-0.6,0.2-0.7,0.4l-3,6.4c0,0.1-0.1,0.2-0.1,0.3v10c0,0.4,0.3,0.8,0.8,0.8h22c0.4,0,0.8-0.3,0.8-0.8v-10
		C23.8,10.7,23.7,10.6,23.7,10.5z M1.8,20.1v-6.7h5L9,16c0.1,0.2,0.4,0.3,0.6,0.3h4.9c0.2,0,0.4-0.1,0.6-0.3l2.2-2.6h5v6.7H1.8z"/>
</g>
</svg>
