<?xml version="1.0" encoding="utf-8"?>
<!-- Generator: Adobe Illustrator 23.0.4, SVG Export Plug-In . SVG Version: 6.00 Build 0)  -->
<svg version="1.1" id="Layer_1" xmlns="http://www.w3.org/2000/svg" xmlns:xlink="http://www.w3.org/1999/xlink" x="0px" y="0px"
	 viewBox="0 0 24 24" style="enable-background:new 0 0 24 24;" xml:space="preserve">
<style type="text/css">
	.st0{fill:#333333;}
</style>
<g>
	<path class="st0" d="M21.6,4h-1.8c-0.4,0-0.8,0.3-0.8,0.8s0.3,0.8,0.8,0.8h1.8c0.3,0,0.6,0.3,0.6,0.6v4.4H1.8V6.1
		c0-0.3,0.3-0.6,0.6-0.6h4.4v1.3c0,0.4,0.3,0.8,0.8,0.8s0.8-0.3,0.8-0.8V2.9c0-0.4-0.3-0.8-0.8-0.8S6.7,2.5,6.7,2.9V4H2.4
		c-1.2,0-2.1,1-2.1,2.1v13.7c0,1.2,1,2.1,2.1,2.1h19.3c1.2,0,2.1-1,2.1-2.1V6.1C23.8,4.9,22.8,4,21.6,4z M21.6,20.4H2.4
		c-0.3,0-0.6-0.3-0.6-0.6V12h20.5v7.7C22.2,20.1,22,20.4,21.6,20.4z"/>
	<path class="st0" d="M10.9,5.5h4.8v1.3c0,0.4,0.3,0.8,0.8,0.8s0.8-0.3,0.8-0.8V2.9c0-0.4-0.3-0.8-0.8-0.8s-0.8,0.3-0.8,0.8V4h-4.8
		c-0.4,0-0.8,0.3-0.8,0.8S10.5,5.5,10.9,5.5z"/>
	<path class="st0" d="M7.3,15.2c-0.5,0-0.9,0.4-0.9,0.9c0,0.5,0.4,0.9,0.9,0.9c0.5,0,0.9-0.4,0.9-0.9C8.2,15.6,7.8,15.2,7.3,15.2z"
		/>
	<path class="st0" d="M12,15.2c-0.5,0-0.9,0.4-0.9,0.9c0,0.5,0.4,0.9,0.9,0.9s0.9-0.4,0.9-0.9C12.9,15.6,12.5,15.2,12,15.2z"/>
	<path class="st0" d="M16.7,15.2c-0.5,0-0.9,0.4-0.9,0.9c0,0.5,0.4,0.9,0.9,0.9c0.5,0,0.9-0.4,0.9-0.9
		C17.6,15.6,17.2,15.2,16.7,15.2z"/>
</g>
</svg>
