<?xml version="1.0" encoding="utf-8"?>
<!-- Generator: Adobe Illustrator 23.0.4, SVG Export Plug-In . SVG Version: 6.00 Build 0)  -->
<svg version="1.1" id="Layer_1" xmlns="http://www.w3.org/2000/svg" xmlns:xlink="http://www.w3.org/1999/xlink" x="0px" y="0px"
	 viewBox="0 0 24 24" style="enable-background:new 0 0 24 24;" xml:space="preserve">
<style type="text/css">
	.st0{fill:#333333;}
</style>
<g>
	<path class="st0" d="M7.3,13.2h2.8h10.1c0.3,0,0.6-0.2,0.7-0.5l2.7-6.8c0.1-0.2,0.1-0.5-0.1-0.7C23.5,5,23.3,4.9,23,4.9H9
		c-0.4,0-0.8,0.3-0.8,0.8S8.6,6.4,9,6.4h12.9l-2.1,5.3h-9.6H7.7L4.6,3.3C4.5,3,4.2,2.8,3.9,2.8H1c-0.4,0-0.8,0.3-0.8,0.8
		S0.6,4.3,1,4.3h2.4L6.2,12c-0.9,0.4-1.6,1.4-1.6,2.5c0,1.5,1.2,2.7,2.7,2.7h13.8c0.4,0,0.8-0.3,0.8-0.8s-0.3-0.8-0.8-0.8H7.3
		c-0.7,0-1.2-0.6-1.2-1.2S6.6,13.2,7.3,13.2z"/>
	<circle class="st0" cx="10.1" cy="20" r="1.2"/>
	<circle class="st0" cx="17.1" cy="20" r="1.2"/>
</g>
</svg>
