<?xml version="1.0" encoding="utf-8"?>
<!-- Generator: Adobe Illustrator 23.0.4, SVG Export Plug-In . SVG Version: 6.00 Build 0)  -->
<svg version="1.1" id="Layer_1" xmlns="http://www.w3.org/2000/svg" xmlns:xlink="http://www.w3.org/1999/xlink" x="0px" y="0px"
	 viewBox="0 0 24 24" style="enable-background:new 0 0 24 24;" xml:space="preserve">
<style type="text/css">
	.st0{fill:#333333;}
</style>
<g>
	<path class="st0" d="M19.1,11.2c-0.4,0-0.8,0.3-0.8,0.8v7.4c0,0.3-0.3,0.6-0.6,0.6H4.5c-0.3,0-0.6-0.3-0.6-0.6V6
		c0-0.3,0.3-0.6,0.6-0.6h7.8c0.4,0,0.8-0.3,0.8-0.8s-0.3-0.8-0.8-0.8H4.5C3.3,3.9,2.4,4.9,2.4,6v13.3c0,1.1,0.9,2.1,2.1,2.1h13.3
		c1.1,0,2.1-0.9,2.1-2.1v-7.4C19.9,11.5,19.6,11.2,19.1,11.2z"/>
	<path class="st0" d="M21.4,4.8l-2-2c-0.1-0.1-0.3-0.2-0.5-0.2s-0.4,0.1-0.5,0.2L10,11.1c-0.1,0.1-0.2,0.2-0.2,0.4l-0.7,2.7
		c-0.1,0.3,0,0.5,0.2,0.7c0.1,0.1,0.3,0.2,0.5,0.2c0.1,0,0.1,0,0.2,0l2.7-0.7c0.1,0,0.3-0.1,0.3-0.2l8.3-8.3
		C21.7,5.6,21.7,5.1,21.4,4.8z M12.1,13l-1.3,0.3l0.3-1.3l7.6-7.6l1,1L12.1,13z"/>
</g>
</svg>
